<svg xmlns="http://www.w3.org/2000/svg" viewBox="0 0 1600 1000" role="img" aria-labelledby="title desc">
  <title id="title">Transport truck on highway</title>
  <desc id="desc">Placeholder hero image for a logistics truck moving on a highway at sunset.</desc>
  <defs>
    <linearGradient id="sky" x1="0" x2="1" y1="0" y2="1">
      <stop offset="0" stop-color="#12325f"/>
      <stop offset="0.56" stop-color="#0a1f44"/>
      <stop offset="1" stop-color="#f97316"/>
    </linearGradient>
  </defs>
  <rect width="1600" height="1000" fill="url(#sky)"/>
  <circle cx="1280" cy="210" r="95" fill="#ffc107" opacity=".85"/>
  <path d="M0 690 C280 600 560 610 840 690 S1320 785 1600 690 V1000 H0Z" fill="#172033"/>
  <path d="M0 820 H1600 V1000 H0Z" fill="#101827"/>
  <path d="M160 890 C430 820 1060 820 1440 890" fill="none" stroke="#f5f7fb" stroke-width="14" stroke-dasharray="80 70" opacity=".85"/>
  <g transform="translate(450 565)">
    <rect x="245" y="40" width="520" height="185" rx="18" fill="#f5f7fb"/>
    <rect x="40" y="95" width="230" height="130" rx="16" fill="#ffc107"/>
    <path d="M70 95 H205 L270 155 V225 H40 V125 C40 108 53 95 70 95Z" fill="#f97316"/>
    <rect x="95" y="120" width="80" height="55" rx="6" fill="#0a1f44" opacity=".85"/>
    <rect x="300" y="78" width="410" height="105" rx="8" fill="#d9e3f0"/>
    <circle cx="175" cy="240" r="54" fill="#101827"/>
    <circle cx="175" cy="240" r="24" fill="#667085"/>
    <circle cx="630" cy="240" r="54" fill="#101827"/>
    <circle cx="630" cy="240" r="24" fill="#667085"/>
  </g>
</svg>
